HIERARCHY
ROOT Hips
{
    OFFSET 0.0 0.0 0.0
    CHANNELS 6 Xposition Yposition Zposition Zrotation Xrotation Yrotation
    JOINT LHipJoint
    {
        OFFSET 0.1 0.0 0.0
        CHANNELS 3 Zrotation Xrotation Yrotation
        JOINT LeftHip
        {
            OFFSET 0.1697809249162674 0.0 0.0
            CHANNELS 3 Zrotation Xrotation Yrotation
            JOINT LeftKnee
            {
                OFFSET 0.0 0.0 -0.31428951025009155
                CHANNELS 3 Zrotation Xrotation Yrotation
                JOINT LeftAnkle
                {
                    OFFSET 0.0 0.0 -0.5130666494369507
                    CHANNELS 3 Zrotation Xrotation Yrotation
                    End Site
                    {
                        OFFSET 0.0 -0.1 0.0
                    }
                }
            }
        }
    }
    JOINT lowerback
    {
        OFFSET 0.0 0.0 0.1
        CHANNELS 3 Zrotation Xrotation Yrotation
        JOINT Chest
        {
            OFFSET 0.0 0.0 0.2723461091518402
            CHANNELS 3 Zrotation Xrotation Yrotation
            JOINT Chest2
            {
                OFFSET 0.0 0.0 0.31228214502334595
                CHANNELS 3 Zrotation Xrotation Yrotation
                JOINT LeftCollar
                {
                    OFFSET 0.1 0.0 0.0
                    CHANNELS 3 Zrotation Xrotation Yrotation
                    JOINT LeftShoulder
                    {
                        OFFSET 0.2186739444732666 0.0 0.0
                        CHANNELS 3 Zrotation Xrotation Yrotation
                        JOINT LeftElbow
                        {
                            OFFSET 0.2778531610965729 0.0 0.0
                            CHANNELS 3 Zrotation Xrotation Yrotation
                            JOINT LeftWrist
                            {
                                OFFSET 0.3733416497707367 0.0 0.0
                                CHANNELS 3 Zrotation Xrotation Yrotation
                                End Site
                                {
                                    OFFSET 0.1 0.0 0.0
                                }
                            }
                        }
                    }
                }
                JOINT Neck
                {
                    OFFSET 0.0 0.0 0.1
                    CHANNELS 3 Zrotation Xrotation Yrotation
                    JOINT Head
                    {
                        OFFSET 0.0 0.0 0.2967161536216736
                        CHANNELS 3 Zrotation Xrotation Yrotation
                        End Site
                        {
                            OFFSET 0.0 0.0 0.1692984402179718
                        }
                    }
                }
                JOINT RightCollar
                {
                    OFFSET -0.1 0.0 0.0
                    CHANNELS 3 Zrotation Xrotation Yrotation
                    JOINT RightShoulder
                    {
                        OFFSET -0.2186739444732666 0.0 0.0
                        CHANNELS 3 Zrotation Xrotation Yrotation
                        JOINT RightElbow
                        {
                            OFFSET -0.2778531610965729 0.0 0.0
                            CHANNELS 3 Zrotation Xrotation Yrotation
                            JOINT RightWrist
                            {
                                OFFSET -0.3733416497707367 0.0 0.0
                                CHANNELS 3 Zrotation Xrotation Yrotation
                                End Site
                                {
                                    OFFSET -0.1 0.0 0.0
                                }
                            }
                        }
                    }
                }
            }
        }
    }
    JOINT RHipJoint
    {
        OFFSET -0.1 0.0 0.0
        CHANNELS 3 Zrotation Xrotation Yrotation
        JOINT RightHip
        {
            OFFSET -0.1697809249162674 0.0 0.0
            CHANNELS 3 Zrotation Xrotation Yrotation
            JOINT RightKnee
            {
                OFFSET 0.0 0.0 -0.31428951025009155
                CHANNELS 3 Zrotation Xrotation Yrotation
                JOINT RightAnkle
                {
                    OFFSET 0.0 0.0 -0.5130666494369507
                    CHANNELS 3 Zrotation Xrotation Yrotation
                    End Site
                    {
                        OFFSET 0.0 -0.1 0.0
                    }
                }
            }
        }
    }
}
MOTION
Frames: 7
Frame Time: 0.06666666666666667
-3.4031018003588542e-06 0.23100587725639343 -7.026754610706121e-05 -16.17139092747249 -19.255640406134784 -18.441408828690108 -1.5902773407317584e-15 5.517382872562698e-33 -3.975693351829396e-16 166.24867382523362 13.56059100831098 -62.27812231460016 -151.4242968908464 -8.928548367999756 -103.2822115525792 1.7890620083232284e-15 -1.5902773407317584e-15 -5.963540027744094e-16 -1.5902773407317584e-15 5.517382872562698e-33 -3.975693351829396e-16 -8.025713126568549 -8.135503147028436 -3.5111101427935796 5.309872311962801 -8.259558055513387e-07 2.2613476103827013e-06 3.1805546814635164e-15 3.1805546814635164e-15 -8.827812596100317e-32 33.0307096120259 -48.08886444594111 -118.33851611465698 -93.93033657764123 -1.314458802323645e-06 -5.265424381344813e-07 -3.1805546814635176e-15 -8.827812596100317e-32 3.1805546814635176e-15 3.1805546814635164e-15 3.1805546814635164e-15 -8.827812596100317e-32 3.6410981240480633 -59.597078485555315 -5.290784436578649 3.1805546814635164e-15 3.1805546814635164e-15 -8.827812596100317e-32 15.863331762524991 -29.579388512419822 125.34744211063351 44.741016632573796 7.483976798099455e-08 -8.72807390793475e-07 1.4345195468663017e-31 -3.1805546814635168e-15 5.168401357378215e-15 -1.5902773407317584e-15 5.517382872562698e-33 -3.975693351829396e-16 -142.29712652389463 -31.928819174445444 -60.01487121017772 156.8465134662968 10.618654775964949 -97.04142920885461 -7.951386703658791e-16 -5.862219302097867e-33 8.448348372637465e-16
1.0793992260005325e-06 0.23101279139518738 -7.255381206050515e-05 -18.777868100477416 -18.472368791407465 -18.93993511971294 -1.1034765745125397e-32 3.180554681463516e-15 3.975693351829395e-16 -145.57023120467574 -30.06718643163275 -51.47255176923604 157.12183019494856 6.135218036049917 -106.43080214775134 -4.793226370538844e-32 7.951386703658792e-16 6.907767198803575e-15 -1.1034765745125397e-32 3.180554681463516e-15 3.975693351829395e-16 -6.281342009800643 -6.359439640886194 -3.011690552764043 6.8707709546884965 3.352926373691636e-06 2.5811960280603356e-07 -2.2069531490250793e-32 -3.1805546814635168e-15 -7.951386703658792e-16 31.107376732197043 -52.19012789446815 -120.21199998626211 -99.23420920168371 2.393215297897969e-06 2.8668115170069384e-06 0.0 0.0 3.1805546814635168e-15 -2.2069531490250793e-32 -3.1805546814635168e-15 -7.951386703658792e-16 1.0822833225092043 -61.20596771706579 -7.031435454847368 -2.2069531490250793e-32 -3.1805546814635168e-15 -7.951386703658792e-16 21.361801048387033 -30.87262901318024 126.73399001899156 50.07341338777106 -4.0838077058308945e-06 -6.567243112268585e-06 -2.2069531490250793e-31 -3.1805546814635168e-15 -7.951386703658792e-15 -1.1034765745125397e-32 3.180554681463516e-15 3.975693351829395e-16 -133.9625378162085 -36.142221318348014 -56.32538239097561 152.6354796067392 12.946079489309714 -99.51456386575269 -2.474201381914835e-32 -3.975693351829397e-16 -7.13139994984398e-15
-4.967987479176372e-06 0.23101219534873962 -7.340704905800521e-05 -19.933158550426704 -17.62792288885771 -19.15144318796717 2.2069531490250793e-32 -3.1805546814635168e-15 7.951386703658792e-16 -141.84807043909973 -31.28109517570751 -49.28492191305083 155.31733809311572 6.809922097476326 -105.67202670999606 3.9756933518293945e-16 7.95138670365879e-16 8.175019454699194e-15 2.2069531490250793e-32 -3.1805546814635168e-15 7.951386703658792e-16 -6.785355691914712 -6.595956861098666 -1.9871723814961615 8.33075565084451 -9.077369582912369e-07 -8.563930012846477e-07 0.0 0.0 0.0 25.835609209899832 -52.99488786853617 -125.39535247271053 -101.55825231021238 -2.674785913721653e-06 -3.100575708410926e-06 -6.361109362927032e-15 -3.1805546814635164e-15 4.7708320221952736e-15 0.0 0.0 0.0 -3.8085461218648584 -62.25563028399817 -11.163886003721629 0.0 0.0 0.0 20.913598780220315 -31.36679324014945 126.0408748082919 50.90214182300366 8.497733812965934e-07 -1.0310376706629126e-06 -1.5902773407317582e-15 3.1805546814635168e-15 -4.373262687012335e-15 2.2069531490250793e-32 -3.1805546814635168e-15 7.951386703658792e-16 -131.73928224499443 -36.03218762903634 -56.2024750722763 152.04284374668242 14.218264653571971 -99.6187448724276 7.951386703658794e-16 1.7414239691526017e-32 2.5096564283423067e-15
-8.699080353835598e-06 0.2310074120759964 -7.145170820876956e-05 -19.112575268058837 -17.796534490920877 -18.734417297822418 2.4828222926532145e-32 7.951386703658794e-16 -3.578124016646457e-15 169.46550885348762 9.934325122445491 -60.432551302810936 -153.64710155241707 -7.805549206023403 -102.29412156820725 -3.4787316828507215e-16 1.5902773407317584e-15 7.702905869169454e-16 2.4828222926532145e-32 7.951386703658794e-16 -3.578124016646457e-15 -8.045294567854087 -7.730495427291174 -2.35391742481024 7.175510155817238 -5.775765293027393e-08 -2.566114453203393e-06 0.0 0.0 0.0 28.53419312442612 -50.689638787478856 -124.16940532299775 -98.35471887854963 -2.927837144705068e-06 1.611284845263217e-06 0.0 0.0 -3.1805546814635168e-15 0.0 0.0 0.0 -2.3540791844705975 -62.24217656262397 -10.69941934024541 0.0 0.0 0.0 15.054894080087989 -32.60556096370736 124.33398696057694 49.102055297721165 2.1902706445878496e-06 2.8035760465532526e-06 0.0 0.0 -3.975693351829397e-15 2.4828222926532145e-32 7.951386703658794e-16 -3.578124016646457e-15 -135.55022086841225 -34.06710384320391 -58.38289311992544 153.60063637935252 13.586262143086412 -98.48588199824306 -7.951386703658791e-16 -7.951386703658791e-16 -5.640514942907955e-15
-1.3033153663855046e-05 0.23101067543029785 -7.301992445718497e-05 -15.649558031630061 -19.527930260776692 -18.00152966901913 -1.5902773407317584e-15 -3.1805546814635168e-15 -3.975693351829396e-16 142.63968126132565 32.27077166149515 -69.36789830567382 -137.2534854535818 -24.808372934056713 -107.99824738182292 7.951386703658792e-16 -3.4483642953516866e-32 -4.969616689786745e-15 -1.5902773407317584e-15 -3.1805546814635168e-15 -3.975693351829396e-16 -6.741391852735026 -6.97627178754935 -2.3395709878767654 2.804528070392706 -1.390250896059146e-06 -2.014310226849945e-07 -3.1805546814635168e-15 -3.578124016646457e-15 -7.951386703658794e-16 29.291645363012602 -48.457604607536474 -121.93910511849403 -97.1216270422054 7.146912924756231e-07 -1.8409354148980571e-06 1.5902773407317584e-15 3.1805546814635168e-15 -1.5902773407317584e-15 -3.1805546814635168e-15 -3.578124016646457e-15 -7.951386703658794e-16 -4.200121640130943 -63.035010406991255 -11.0805233859279 -3.1805546814635168e-15 -3.578124016646457e-15 -7.951386703658794e-16 15.000134804875977 -32.40163851983187 124.64478944113014 49.569094083188915 3.0828797388527586e-06 7.375379480082229e-07 -3.180554681463516e-15 -3.180554681463516e-15 -8.827812596100317e-32 -1.5902773407317584e-15 -3.1805546814635168e-15 -3.975693351829396e-16 -140.99794747661775 -33.136403565225685 -59.26845435297662 153.96228597519212 11.623312022466518 -94.93207518955755 6.551892161168204e-33 -3.975693351829396e-16 1.888454342118963e-15
-1.2758289813064039e-05 0.2310127317905426 -7.279703277163208e-05 -12.919792668494994 -20.01900021363106 -18.240504275682525 6.448441232307653e-32 3.3793393490549868e-15 -2.1866313435061676e-15 140.78588763353247 34.55010434498653 -71.70801678332245 -138.228554362733 -26.459607518411413 -109.92166718882329 -2.782985346280577e-15 -3.1805546814635168e-15 -2.5842006786891076e-15 6.448441232307653e-32 3.3793393490549868e-15 -2.1866313435061676e-15 -7.248051420234888 -7.836716564174817 -1.9284948461777187 1.2612306681327345 -6.947790007346276e-08 2.193635395603295e-06 -3.1805546814635176e-15 2.2069531490250793e-32 -7.951386703658794e-16 27.573871325750506 -46.69199213697061 -121.64269271196609 -97.9623300905039 -1.038131838599872e-06 8.145046851480663e-07 0.0 0.0 1.5902773407317582e-15 -3.1805546814635176e-15 2.2069531490250793e-32 -7.951386703658794e-16 -2.2547682000417577 -62.151951413790975 -7.795322429556586 -3.1805546814635176e-15 2.2069531490250793e-32 -7.951386703658794e-16 17.748776888155586 -31.217543877691554 125.05596959922843 51.27087247990284 -4.1047115933649524e-07 1.0268377117916984e-06 2.2069531490250793e-32 3.1805546814635164e-15 -7.951386703658791e-16 6.448441232307653e-32 3.3793393490549868e-15 -2.1866313435061676e-15 -147.803544342075 -30.024892080870774 -62.15182367453675 157.8376897222915 9.321563878140644 -94.78673448292172 7.951386703658792e-16 -1.4483130040477084e-32 -2.087239009710433e-15
-1.1500276741571724e-05 0.23101066052913666 -7.16912472853437e-05 -10.874155428858138 -20.38908221552295 -17.759630920340648 -2.2069531490250793e-32 3.1805546814635168e-15 7.951386703658792e-16 138.97150753286476 36.07994099220847 -72.80310237382255 -139.5742349296787 -27.34508197399321 -116.58348621479603 1.1927080055488188e-15 5.586350158469732e-32 5.367186024969684e-15 -2.2069531490250793e-32 3.1805546814635168e-15 7.951386703658792e-16 -7.548672580628676 -8.309545418445103 -2.066142386470277 -0.12547364770383929 -8.303981601074379e-07 -4.457827072563468e-07 3.1805546814635164e-15 -3.578124016646456e-15 7.951386703658792e-16 27.997965248072283 -46.32212690680771 -120.21771784274705 -98.46078347203027 3.0953699876991953e-06 -2.2759331976517183e-06 1.5902773407317584e-15 -3.310429723537619e-32 -2.3854160110976376e-15 3.1805546814635164e-15 -3.578124016646456e-15 7.951386703658792e-16 2.871257577447905 -60.966751916850015 -3.989954558731882 3.1805546814635164e-15 -3.578124016646456e-15 7.951386703658792e-16 18.103517071676272 -31.06205373564325 125.08259980385357 52.059676382595825 8.15888950189425e-06 -1.5114903597165275e-06 3.1805546814635168e-15 -6.620859447075238e-32 -2.3854160110976376e-15 -2.2069531490250793e-32 3.1805546814635168e-15 7.951386703658792e-16 -154.14596138962827 -25.70992424022354 -64.2907340850489 162.7057833130718 6.938592854895581 -94.4685326885095 0.0 0.0 1.6896696745274934e-15
